<svg width="36" height="36" viewBox="0 0 36 36" fill="none" xmlns="http://www.w3.org/2000/svg">
<path d="M18.0007 0.54541C13.2605 0.54541 12.6656 0.566138 10.8038 0.650865C8.9457 0.735956 7.67737 1.03014 6.56759 1.46177C5.41962 1.90759 4.44584 2.50396 3.47568 3.4745C2.5048 4.44468 1.90846 5.4185 1.4612 6.56614C1.02848 7.67632 0.733948 8.94505 0.650315 10.8025C0.567044 12.6643 0.545227 13.2596 0.545227 18C0.545227 22.7403 0.566318 23.3334 0.650679 25.1952C0.736131 27.0534 1.0303 28.3218 1.46156 29.4316C1.90773 30.5796 2.50408 31.5534 3.47459 32.5236C4.44438 33.4945 5.41817 34.0923 6.56541 34.5381C7.67592 34.9698 8.94461 35.264 10.8024 35.349C12.6641 35.4338 13.2587 35.4545 17.9985 35.4545C22.7391 35.4545 23.3322 35.4338 25.1939 35.349C27.0521 35.264 28.3218 34.9698 29.4324 34.5381C30.58 34.0923 31.5523 33.4945 32.5221 32.5236C33.493 31.5534 34.0893 30.5796 34.5366 29.432C34.9656 28.3218 35.2602 27.053 35.3474 25.1956C35.4311 23.3338 35.4529 22.7403 35.4529 18C35.4529 13.2596 35.4311 12.6647 35.3474 10.8029C35.2602 8.94468 34.9656 7.67632 34.5366 6.5665C34.0893 5.4185 33.493 4.44468 32.5221 3.4745C31.5512 2.50359 30.5803 1.90723 29.4313 1.46177C28.3186 1.03014 27.0495 0.735956 25.1914 0.650865C23.3296 0.566138 22.7369 0.54541 17.9952 0.54541H18.0007ZM16.4349 3.69086C16.8996 3.69014 17.4182 3.69086 18.0007 3.69086C22.6609 3.69086 23.2133 3.70759 25.0536 3.79123C26.7553 3.86905 27.6789 4.15341 28.2942 4.39232C29.1087 4.70868 29.6894 5.08686 30.3 5.69777C30.9109 6.30868 31.289 6.8905 31.6061 7.70505C31.845 8.31959 32.1297 9.24323 32.2072 10.945C32.2908 12.785 32.309 13.3378 32.309 17.996C32.309 22.6541 32.2908 23.2069 32.2072 25.0469C32.1294 26.7487 31.845 27.6723 31.6061 28.2869C31.2897 29.1014 30.9109 29.6814 30.3 30.292C29.6891 30.9029 29.1091 31.281 28.2942 31.5974C27.6797 31.8374 26.7553 32.121 25.0536 32.1989C23.2136 32.2825 22.6609 32.3007 18.0007 32.3007C13.3401 32.3007 12.7878 32.2825 10.9478 32.1989C9.24605 32.1203 8.32245 31.836 7.70683 31.597C6.89231 31.2807 6.31051 30.9025 5.69962 30.2916C5.08873 29.6807 4.71056 29.1003 4.39347 28.2854C4.15457 27.6709 3.86985 26.7472 3.7924 25.0454C3.70877 23.2054 3.69204 22.6527 3.69204 17.9916C3.69204 13.3305 3.70877 12.7807 3.7924 10.9407C3.87022 9.23886 4.15457 8.31523 4.39347 7.69995C4.70983 6.88541 5.08873 6.30359 5.69962 5.69268C6.31051 5.08177 6.89231 4.70359 7.70683 4.3865C8.32208 4.1465 9.24605 3.86286 10.9478 3.78468C12.558 3.71196 13.1819 3.69014 16.4349 3.6865V3.69086ZM27.3175 6.58905C26.1612 6.58905 25.223 7.52614 25.223 8.68286C25.223 9.83923 26.1612 10.7774 27.3175 10.7774C28.4738 10.7774 29.412 9.83923 29.412 8.68286C29.412 7.5265 28.4738 6.58832 27.3175 6.58832V6.58905ZM18.0007 9.03632C13.0507 9.03632 9.03733 13.0498 9.03733 18C9.03733 22.9501 13.0507 26.9618 18.0007 26.9618C22.9507 26.9618 26.9626 22.9501 26.9626 18C26.9626 13.0498 22.9504 9.03632 18.0003 9.03632H18.0007ZM18.0007 12.1818C21.2137 12.1818 23.8187 14.7865 23.8187 18C23.8187 21.213 21.2137 23.8181 18.0007 23.8181C14.7873 23.8181 12.1827 21.213 12.1827 18C12.1827 14.7865 14.7873 12.1818 18.0007 12.1818Z" fill="white"/>
</svg>
