<svg width="32" height="24" viewBox="0 0 32 24" fill="none" xmlns="http://www.w3.org/2000/svg">
<path d="M31.6812 18.3923C31.6812 18.3923 31.3688 20.5985 30.4062 21.5673C29.1875 22.8423 27.825 22.8485 27.2 22.9235C22.725 23.2485 16.0063 23.2485 16.0063 23.2485H15.9937C15.9937 23.2485 9.275 23.2485 4.8 22.9235C4.175 22.8485 2.8125 22.8423 1.59375 21.5673C0.63125 20.5985 0.325 18.3923 0.325 18.3923C0.325 18.3923 0 15.7985 0 13.211V10.786C0 8.19854 0.31875 5.60479 0.31875 5.60479C0.31875 5.60479 0.63125 3.39853 1.5875 2.42978C2.80625 1.15479 4.40625 1.19854 5.11875 1.06104C7.68125 0.817286 16 0.742285 16 0.742285C16 0.742285 22.725 0.754786 27.2 1.07354C27.825 1.14854 29.1875 1.15479 30.4062 2.42978C31.3688 3.39853 31.6812 5.60479 31.6812 5.60479C31.6812 5.60479 32 8.19229 32 10.786V13.211C32 15.7985 31.6812 18.3923 31.6812 18.3923ZM12.6938 7.84229V16.836L21.3375 12.3235L12.6938 7.84229Z" fill="white"/>
</svg>
